<svg width="160" height="160" viewBox="0 0 160 160" fill="none" xmlns="http://www.w3.org/2000/svg">
<path d="M114.886 80.2325C114.709 78.0171 114.052 75.747 112.903 73.4359C112.644 72.9026 112.37 72.3829 112.055 71.8496C110.127 68.5265 107.816 66.0787 105.109 64.5197L103.016 63.3163L87.3856 54.2906L69.2249 43.8017L43.8572 29.1556L26.3529 19.0496C23.9187 17.6411 21.7992 17.3129 19.9941 18.0513L19.3921 18.3522C17.4639 19.4462 16.5068 21.5522 16.5068 24.6565V92.4308C16.5068 95.5487 17.4639 98.7624 19.3921 102.086C21.3203 105.409 23.6452 107.856 26.3529 109.415L105.109 154.886C107.816 156.444 110.127 156.677 112.055 155.583C113.984 154.489 114.941 152.383 114.941 149.279V81.4906C114.941 81.0667 114.927 80.6564 114.886 80.2325ZM43.8572 55.2479C43.8572 55.2479 43.9528 55.1795 44.0075 55.1522C45.9357 54.0582 48.247 54.277 50.9547 55.8496C53.6624 57.4086 55.9872 59.8565 57.9154 63.1795C58.8453 64.7932 59.5565 66.3795 60.0352 67.9385C60.5411 69.5932 60.8007 71.2204 60.8007 72.8204C60.8007 74.1196 60.6367 75.2411 60.2812 76.1847C59.8299 77.5111 59.0367 78.4956 57.9154 79.1384C55.9872 80.2324 53.6624 79.9999 50.9547 78.4409C48.247 76.882 45.9357 74.4341 44.0075 71.111C43.9528 71.0153 43.8983 70.9334 43.8572 70.8376C42.0248 67.6103 41.1085 64.4787 41.1085 61.4564C41.1085 58.4342 42.0248 56.3693 43.8572 55.2479ZM69.4162 110.496C68.6778 110.865 67.7752 110.742 66.7085 110.127L35.2007 91.9384C34.134 91.323 33.2316 90.4206 32.4931 89.2445C31.7547 88.0684 31.399 86.9059 31.399 85.7845C31.399 83.9931 31.8366 82.5847 32.7392 81.5453C33.6417 80.5197 34.9547 79.8905 36.6778 79.658C38.4829 79.3845 40.5751 79.6308 42.9545 80.3829C43.2964 80.4923 43.6383 80.6154 43.9939 80.7522C46.0998 81.518 48.4248 82.6255 50.9547 84.0888C53.9085 85.7982 56.5753 87.6445 58.9548 89.6274C61.3343 91.6103 63.4263 93.7847 65.2315 96.1368C66.9546 98.4479 68.2675 100.622 69.1701 102.646C69.5667 103.549 69.881 104.397 70.0862 105.203C70.387 106.229 70.5239 107.186 70.5239 108.089C70.5239 109.32 70.1547 110.113 69.4162 110.496ZM98.7631 110.072C97.8195 110.605 96.6571 110.468 95.2622 109.662L80.4933 101.142C79.0984 100.335 77.9222 99.118 76.9786 97.4906C76.035 95.8633 75.5701 94.2495 75.5701 92.6495C75.5701 91.0495 76.035 89.9829 76.9786 89.4359C77.9222 88.9026 79.0984 89.0393 80.4933 89.8462L95.2622 98.3658C96.6571 99.1727 97.8195 100.39 98.7631 102.017C99.7067 103.644 100.185 105.258 100.185 106.858C100.185 108.458 99.7067 109.525 98.7631 110.072ZM98.7631 93.1146C98.4622 93.2787 98.1615 93.3881 97.8196 93.4291C97.0812 93.5111 96.2195 93.2787 95.2622 92.718L80.4933 84.1983C79.0984 83.3915 77.9222 82.1744 76.9786 80.547C76.035 78.9197 75.5701 77.3059 75.5701 75.7059C75.5701 74.1059 76.035 73.0394 76.9786 72.4923C77.9222 71.959 79.0984 72.0958 80.4933 72.9026L87.3309 76.8411L95.2622 81.4223C96.6571 82.2291 97.8195 83.4462 98.7631 85.0735C99.7067 86.7009 100.185 88.3144 100.185 89.9144C100.185 91.5144 99.7067 92.5812 98.7631 93.1146Z" stroke="#E4A300" stroke-width="2.73504" stroke-linecap="round" stroke-linejoin="round"/>
<path d="M60.7986 72.8205C60.7986 74.1196 60.6346 75.2411 60.2791 76.1847C59.8278 77.5112 59.0346 78.4957 57.9133 79.1384C55.9851 80.2325 53.6603 80 50.9526 78.441C48.2449 76.882 45.9337 74.4342 44.0055 71.1111C43.9508 71.0154 43.8962 70.9335 43.8552 70.8377C42.0227 67.6104 41.1064 64.4788 41.1064 61.4565C41.1064 58.4343 42.0227 56.3694 43.8552 55.248C43.8962 55.207 43.9508 55.1796 44.0055 55.1523C45.9337 54.0582 48.2449 54.277 50.9526 55.8497C53.6603 57.4087 55.9851 59.8565 57.9133 63.1796C58.8432 64.7933 59.5544 66.3796 60.0331 67.9386C60.5391 69.5933 60.7986 71.2205 60.7986 72.8205Z" stroke="#E4A300" stroke-width="2.73504" stroke-linecap="round" stroke-linejoin="round"/>
<path d="M100.185 106.858C100.185 108.458 99.706 109.525 98.7624 110.072C97.8188 110.605 96.6564 110.468 95.2615 109.662L80.4926 101.142C79.0977 100.335 77.9215 99.1178 76.9779 97.4904C76.0343 95.8631 75.5693 94.2494 75.5693 92.6494C75.5693 91.0494 76.0343 89.9828 76.9779 89.4358C77.9215 88.9024 79.0977 89.0393 80.4926 89.8461L95.2615 98.3658C96.6564 99.1726 97.8188 100.39 98.7624 102.017C99.706 103.644 100.185 105.258 100.185 106.858Z" stroke="#E4A300" stroke-width="2.73504" stroke-linecap="round" stroke-linejoin="round"/>
<path d="M100.185 89.9146C100.185 91.5146 99.706 92.5814 98.7624 93.1148C98.4615 93.2789 98.1608 93.3883 97.8189 93.4293C97.0804 93.5113 96.2188 93.2787 95.2615 92.718L80.4926 84.1985C79.0977 83.3917 77.9215 82.1744 76.9779 80.5471C76.0343 78.9197 75.5693 77.3061 75.5693 75.7061C75.5693 74.1061 76.0343 73.0394 76.9779 72.4924C77.9215 71.9591 79.0977 72.0959 80.4926 72.9028L87.3302 76.8412L95.2615 81.4223C96.6564 82.2291 97.8188 83.4464 98.7624 85.0737C99.706 86.7011 100.185 88.3146 100.185 89.9146Z" stroke="#E4A300" stroke-width="2.73504" stroke-linecap="round" stroke-linejoin="round"/>
<path d="M70.5243 108.089C70.5243 109.32 70.1551 110.113 69.4166 110.496C68.6782 110.865 67.7756 110.742 66.709 110.127L35.2011 91.9385C34.1345 91.3231 33.232 90.4205 32.4936 89.2445C31.7551 88.0684 31.3994 86.906 31.3994 85.7846C31.3994 83.9932 31.837 82.5846 32.7396 81.5453C33.6421 80.5197 34.9551 79.8906 36.6782 79.6581C38.4833 79.3846 40.5755 79.6309 42.955 80.3831C43.2969 80.4925 43.6387 80.6155 43.9943 80.7523C46.1003 81.5181 48.4252 82.6257 50.9551 84.0889C53.909 85.7983 56.5758 87.6446 58.9552 89.6275C61.3347 91.6104 63.4268 93.7848 65.2319 96.1369C66.955 98.448 68.2679 100.622 69.1705 102.646C69.5671 103.549 69.8815 104.397 70.0866 105.204C70.3874 106.229 70.5243 107.186 70.5243 108.089Z" stroke="#E4A300" stroke-width="2.73504" stroke-linecap="round" stroke-linejoin="round"/>
<path d="M142.291 67.8156V135.604C142.291 138.708 141.333 140.814 139.405 141.908L138.803 142.209L112.054 155.583C113.983 154.489 114.94 152.383 114.94 149.279V81.4908C114.94 81.0669 114.926 80.6567 114.885 80.2327C114.708 78.0173 114.051 75.7473 112.902 73.4361C112.643 72.9028 112.369 72.3831 112.054 71.8498C110.126 68.5267 107.815 66.0789 105.108 64.5199L103.015 63.3165L87.3847 54.2908L69.224 43.8019L43.8563 29.1558L26.352 19.0498C23.9178 17.6413 21.7983 17.3131 19.9932 18.0515L46.7417 4.67713C48.6699 3.56944 50.9948 3.80193 53.7025 5.37458L132.458 50.8447C135.166 52.4037 137.477 54.8515 139.405 58.1746C141.333 61.4977 142.291 64.7114 142.291 67.8156Z" stroke="#E4A300" stroke-width="2.73504" stroke-linecap="round" stroke-linejoin="round"/>
</svg>
