<svg width="160" height="160" viewBox="0 0 160 160" fill="none" xmlns="http://www.w3.org/2000/svg">
<path d="M66.4258 81.6141C68.1058 81.6141 69.4258 80.9874 70.3991 79.7074C70.4258 79.6674 70.4524 79.6274 70.4791 79.5874L66.4258 81.6141ZM88.9858 108.614L88.7458 108.734C88.8258 108.708 88.9058 108.681 88.9991 108.667C88.9858 108.654 88.9858 108.627 88.9858 108.614Z" stroke="#E4A300" stroke-width="2" stroke-linecap="round" stroke-linejoin="round"/>
<path d="M123.558 141.041C123.332 141.815 122.918 142.375 122.305 142.721L95.6382 156.055C96.6115 155.508 97.0917 154.415 97.0917 152.775V141.188L107.198 147.015C108.625 147.841 109.825 147.975 110.785 147.428L119.905 142.868H119.918L123.558 141.041Z" stroke="#E4A300" stroke-width="2" stroke-linecap="round" stroke-linejoin="round"/>
<path d="M138.907 130.801C138.907 132.441 138.427 133.535 137.453 134.095L137.16 134.241L123.56 141.041L119.92 142.868H119.907L110.787 147.428C111.76 146.868 112.24 145.775 112.24 144.135C112.24 142.495 111.76 140.841 110.787 139.161C109.827 137.495 108.627 136.255 107.2 135.428L97.0933 129.601L113.013 121.641L123.76 116.267L133.867 122.094C135.293 122.921 136.493 124.161 137.453 125.827C138.427 127.507 138.907 129.161 138.907 130.801Z" stroke="#E4A300" stroke-width="2" stroke-linecap="round" stroke-linejoin="round"/>
<path d="M87.2001 110.574C87.0668 111.027 87.0001 111.561 87.0001 112.174V123.761L76.8934 117.934C75.6134 117.187 74.5068 117.014 73.6001 117.374L78.3868 114.974L87.2001 110.574Z" stroke="#E4A300" stroke-width="2" stroke-linecap="round" stroke-linejoin="round"/>
<path d="M88.9846 108.614L88.7446 108.734L88.4513 108.881C87.838 109.227 87.4246 109.801 87.198 110.574L78.3846 114.974L73.598 117.374L73.3046 117.521C72.3313 118.067 71.8513 119.174 71.8513 120.814C71.8513 122.454 72.3313 124.107 73.3046 125.774C74.2646 127.454 75.4646 128.694 76.8913 129.521L79.4913 131.014L64.9713 138.281C66.1046 137.201 66.118 135.281 65.0246 132.521C63.9313 129.481 63.118 126.467 62.5713 123.494C62.0246 120.521 61.7446 117.681 61.7446 114.987C61.7446 111.801 62.1046 108.934 62.8246 106.401C63.5313 103.868 64.5313 101.721 65.7846 99.9341L66.918 99.3741L78.4246 93.6141C78.5446 93.6141 78.6646 93.6141 78.7846 93.6141C81.9046 93.6141 85.2513 94.4409 88.838 96.0676C88.558 97.8142 88.4113 99.6808 88.4113 101.667C88.4113 103.894 88.598 106.214 88.9846 108.627V108.614Z" stroke="#E4A300" stroke-width="2" stroke-linecap="round" stroke-linejoin="round"/>
<path d="M128.814 57.6143V85.281C128.814 87.0143 128.228 88.081 127.041 88.4676L100.988 101.494C101.761 100.988 102.148 100.014 102.148 98.6143V70.9476C102.148 68.5343 101.534 66.0144 100.321 63.3744C99.7877 62.2144 99.1744 61.1211 98.4811 60.0811C97.6411 58.7611 96.6677 57.5476 95.5877 56.441L81.9344 42.6811L65.2811 25.9078C64.1077 24.7478 62.9344 23.8276 61.7477 23.1476C60.5744 22.4676 59.4011 22.0278 58.2144 21.8278L48.0277 20.3344L27.9211 17.3744C26.8144 17.2411 25.8144 17.3344 24.9478 17.6811L50.9211 4.69441L51.5211 4.38777C52.4144 4.01444 53.4411 3.89443 54.5877 4.04109L84.8811 8.49439C86.0677 8.69439 87.2411 9.13437 88.4144 9.81437C89.6011 10.4944 90.7744 11.4145 91.9477 12.5745L122.254 43.1076C124.188 45.0943 125.761 47.4011 126.988 50.0411C128.201 52.6811 128.814 55.201 128.814 57.6143Z" stroke="#E4A300" stroke-width="2" stroke-linecap="round" stroke-linejoin="round"/>
<path d="M102.147 70.9475V98.6141C102.147 100.014 101.761 100.988 100.987 101.494L100.374 101.801C99.2009 102.174 97.8542 101.787 96.3342 100.627C95.5875 99.9874 94.8274 99.4275 94.0674 98.9475C93.3074 98.4675 92.5474 98.0009 91.8007 97.5609C90.8007 97.0009 89.8142 96.4943 88.8409 96.0543C85.2542 94.4276 81.9075 93.6141 78.7875 93.6008C78.6675 93.6008 78.5475 93.6008 78.4275 93.6008C74.6275 93.6408 71.3875 94.7608 68.6942 96.9608L66.4275 81.6008C68.1075 81.6008 69.4274 80.9742 70.4007 79.6942C70.4274 79.6542 70.4541 79.6142 70.4807 79.5742C71.3874 78.3076 71.8542 76.6008 71.8542 74.4408C71.8542 72.7341 71.5742 71.0142 71.0009 69.2409C70.5209 67.7076 69.8007 66.1343 68.8807 64.5476C66.9074 61.1343 64.5342 58.6276 61.7475 57.0276C58.9742 55.4276 56.6009 55.1876 54.6142 56.3209C52.6409 57.4409 51.6541 59.6008 51.6541 62.7874C51.6541 63.3341 51.6809 63.8941 51.7475 64.4541C51.9209 66.1741 52.3742 67.9209 53.1075 69.7076C53.3609 70.3342 53.6275 70.9342 53.9342 71.5342C54.7875 73.2142 55.8409 74.7742 57.0809 76.2009L56.6275 78.7741L54.6809 90.0276C54.5075 90.8009 54.7075 91.7076 55.2542 92.7476C55.8009 93.7876 56.4542 94.5208 57.2009 94.9608L65.7875 99.9208C64.5342 101.707 63.5342 103.854 62.8275 106.388C62.1075 108.921 61.7475 111.787 61.7475 114.974C61.7475 117.667 62.0274 120.507 62.5741 123.481C63.1207 126.454 63.9342 129.468 65.0275 132.508C66.1209 135.268 66.1074 137.188 64.9741 138.268C63.8407 139.348 62.4675 139.041 60.8675 137.348C49.5075 127.601 40.0809 114.548 32.5875 98.2009C25.1075 81.8543 21.3608 66.3476 21.3608 51.6676V24.2941C21.3608 21.8808 21.9742 20.0542 23.1875 18.8276C23.4675 18.5476 23.7741 18.2941 24.0941 18.0941L24.1875 18.0409L24.9075 17.6809H24.9475C25.8142 17.3209 26.8141 17.2276 27.9208 17.3609L48.0275 20.3209L58.2141 21.8141C59.4007 22.0141 60.5742 22.4541 61.7475 23.1341C62.9342 23.8141 64.1075 24.7342 65.2809 25.8942L81.9342 42.6676L95.5875 56.4274C96.6675 57.5341 97.6407 58.7476 98.4807 60.0676C99.1741 61.1076 99.7874 62.2009 100.321 63.3609C101.534 66.0009 102.147 68.5208 102.147 70.9341V70.9475Z" stroke="#E4A300" stroke-width="2" stroke-linecap="round" stroke-linejoin="round"/>
<path d="M71.0006 69.2542L57.0806 76.2143C55.8406 74.7877 54.7873 73.2277 53.9339 71.5477C53.6273 70.9477 53.3606 70.3477 53.1073 69.721C52.3739 67.9343 51.9206 66.1875 51.7473 64.4809C51.6806 63.9075 51.6538 63.3475 51.6538 62.8009C51.6538 59.6142 52.6406 57.4543 54.6139 56.3343C56.6006 55.201 58.9739 55.441 61.7473 57.041C64.5339 58.641 66.9071 61.1477 68.8805 64.561C69.8005 66.1477 70.5206 67.7209 71.0006 69.2542Z" stroke="#E4A300" stroke-width="2" stroke-linecap="round" stroke-linejoin="round"/>
<path d="M78.4265 93.6142L66.9198 99.3742L65.7865 99.9341L57.1998 94.9741C56.4532 94.5341 55.7998 93.8008 55.2532 92.7608C54.7065 91.7208 54.5065 90.8142 54.6798 90.0408L56.6265 78.8008L57.0798 76.2141L70.9998 69.2542C71.5732 71.0275 71.8532 72.7475 71.8532 74.4541C71.8532 76.6141 71.3865 78.3208 70.4798 79.5875L66.4265 81.6142L68.6932 96.9741C71.3865 94.7741 74.6265 93.6542 78.4265 93.6142Z" stroke="#E4A300" stroke-width="2" stroke-linecap="round" stroke-linejoin="round"/>
<path d="M112.239 144.134C112.239 145.774 111.759 146.868 110.786 147.428C109.826 147.974 108.626 147.841 107.199 147.014L97.0921 141.188V152.774C97.0921 154.414 96.6121 155.508 95.6387 156.054C94.6787 156.614 93.4789 156.481 92.0389 155.654C90.6122 154.828 89.4122 153.574 88.4522 151.908C87.4789 150.241 86.9987 148.588 86.9987 146.934V135.348L79.4921 131.014L76.8921 129.521C75.4654 128.694 74.2654 127.454 73.3054 125.774C72.3321 124.107 71.8521 122.454 71.8521 120.814C71.8521 119.174 72.3321 118.067 73.3054 117.521L73.5987 117.374C74.5054 117.014 75.6121 117.187 76.8921 117.934L86.9987 123.761V112.174C86.9987 111.561 87.0655 111.027 87.1989 110.574C87.4255 109.801 87.8389 109.227 88.4522 108.881L88.7454 108.734C88.8254 108.707 88.9054 108.681 88.9987 108.667C89.5454 108.494 90.1721 108.521 90.8521 108.747C91.2387 108.867 91.6255 109.054 92.0389 109.294C93.4789 110.121 94.6787 111.374 95.6387 113.041C96.6121 114.707 97.0921 116.361 97.0921 118.001V129.601L107.199 135.428C108.626 136.254 109.826 137.495 110.786 139.161C111.759 140.841 112.239 142.494 112.239 144.134Z" stroke="#E4A300" stroke-width="2" stroke-linecap="round" stroke-linejoin="round"/>
<path d="M123.761 104.668V116.268L113.015 121.641L97.0946 129.601V118.001C97.0946 116.361 96.6145 114.708 95.6411 113.041C94.6811 111.374 93.4813 110.121 92.0413 109.294C91.6279 109.054 91.2413 108.868 90.8546 108.748C90.1746 108.521 89.5479 108.494 89.0013 108.668C88.9879 108.654 88.9878 108.628 88.9878 108.614L115.121 95.5477C116.081 95.001 117.281 95.1343 118.708 95.961C120.148 96.7876 121.348 98.041 122.308 99.7077C123.281 101.374 123.761 103.028 123.761 104.668Z" stroke="#E4A300" stroke-width="2" stroke-linecap="round" stroke-linejoin="round"/>
</svg>
