<svg width="160" height="160" viewBox="0 0 160 160" fill="none" xmlns="http://www.w3.org/2000/svg">
<path d="M94.2425 133.491L94.4122 133.406M56.9697 116.497C57.2728 116.4 57.5394 116.279 57.7697 116.097L56.9697 116.497ZM104.388 95.6845C104.836 95.5996 105.2 95.4179 105.479 95.1392L104.388 95.6845Z" stroke="#E4A300" stroke-width="2" stroke-linecap="round" stroke-linejoin="round"/>
<path d="M112.581 124.339L112.569 124.315C112.024 122.933 111.406 121.539 110.703 120.133C110.109 118.909 109.454 117.697 108.739 116.473C107.224 113.854 105.6 111.479 103.878 109.309C100.424 104.957 96.5571 101.503 92.2662 98.9696C92.1328 98.8848 91.9995 98.7999 91.8662 98.7272C88.5692 96.812 85.5147 95.7211 82.7025 95.4302C80.3631 95.1878 78.1934 95.503 76.1934 96.3757L74.9813 96.9817C74.3995 97.309 73.8663 97.6846 73.3572 98.0846C70.036 100.739 68.2541 105.042 68.0238 110.969C68.0116 111.418 67.9995 111.866 67.9995 112.327C67.9995 119.903 70.3268 127.697 74.9813 135.721C79.6359 143.745 85.2601 149.661 91.8662 153.479C98.4601 157.285 104.084 157.867 108.739 155.212C113.139 152.703 115.454 148.012 115.696 141.115C115.696 140.703 115.721 140.291 115.721 139.867C115.721 134.8 114.678 129.624 112.581 124.339ZM104.509 135.309L95.1995 140.618C94.7268 140.897 94.2056 140.982 93.648 140.885C93.0904 140.8 92.4965 140.57 91.8662 140.194C91.2238 139.83 90.6298 139.37 90.0722 138.824C89.5147 138.267 88.9936 137.588 88.5208 136.764L79.2238 120.715C78.7389 119.891 78.4965 119.115 78.4965 118.388C78.4965 117.66 78.7389 117.151 79.2238 116.885C79.6965 116.606 80.2541 116.654 80.8844 117.03C81.5268 117.394 82.0844 117.988 82.5571 118.812L89.4783 130.739V111.03C89.4783 110.303 89.7207 109.806 90.1934 109.527C90.6662 109.261 91.2238 109.309 91.8662 109.673C92.4965 110.036 93.0541 110.63 93.5268 111.454C94.0116 112.279 94.2419 113.054 94.2419 113.782V133.491L94.4116 133.406L101.163 129.552C101.503 129.358 101.866 129.333 102.29 129.467H102.315C102.484 129.515 102.654 129.588 102.836 129.697C103.478 130.061 104.024 130.655 104.509 131.479C104.981 132.303 105.224 133.079 105.224 133.806C105.224 134.533 104.981 135.042 104.509 135.309Z" stroke="#E4A300" stroke-width="2" stroke-linecap="round" stroke-linejoin="round"/>
<path d="M94.2431 113.782V128.352L89.4795 130.74V111.03C89.4795 110.303 89.7219 109.806 90.1946 109.527C90.6674 109.26 91.2249 109.309 91.8674 109.673C92.4977 110.036 93.0552 110.63 93.528 111.454C94.0128 112.279 94.2431 113.054 94.2431 113.782Z" stroke="#E4A300" stroke-width="2" stroke-linecap="round" stroke-linejoin="round"/>
<path d="M102.291 129.467L94.4126 133.406L101.164 129.552C101.504 129.358 101.867 129.334 102.291 129.467Z" stroke="#E4A300" stroke-width="2" stroke-linecap="round" stroke-linejoin="round"/>
<path d="M105.223 133.806C105.223 134.546 104.981 135.042 104.508 135.309L95.199 140.618C94.7263 140.897 94.2052 140.982 93.6476 140.885C93.09 140.8 92.496 140.57 91.8657 140.194C91.2232 139.83 90.6294 139.37 90.0718 138.824C89.5143 138.267 88.9931 137.588 88.5203 136.764L79.2232 120.715C78.7384 119.891 78.4961 119.115 78.4961 118.388C78.4961 117.66 78.7384 117.151 79.2232 116.885C79.696 116.606 80.2535 116.654 80.8838 117.03C81.5263 117.394 82.0839 117.988 82.5566 118.812L89.4779 130.739L94.2415 128.352V133.503L94.4112 133.406L102.29 129.467H102.314C102.484 129.515 102.654 129.588 102.835 129.697C103.478 130.061 104.023 130.655 104.508 131.479C104.981 132.303 105.223 133.079 105.223 133.806Z" stroke="#E4A300" stroke-width="2" stroke-linecap="round" stroke-linejoin="round"/>
<path d="M139.964 127.745C139.964 135.321 137.637 140.436 132.982 143.091L131.831 143.661L108.74 155.212C113.14 152.703 115.455 148.012 115.697 141.115C115.697 140.703 115.721 140.291 115.721 139.867C115.721 134.8 114.679 129.624 112.582 124.339L112.57 124.315C112.025 122.933 111.406 121.539 110.703 120.133C110.109 118.909 109.455 117.697 108.74 116.472C107.225 113.854 105.6 111.478 103.879 109.309C100.425 104.957 96.558 101.503 92.2671 98.9695C92.1337 98.8847 92.0003 98.7997 91.8669 98.727C88.57 96.8118 85.5154 95.721 82.7033 95.4301C80.3639 95.1877 78.1943 95.5028 76.1943 96.3756L82.7277 93.1148L92.5701 88.1938C93.2489 88.5938 93.9277 89.03 94.6065 89.4906C95.1883 89.8785 95.77 90.2785 96.3397 90.6906C97.8063 91.7694 99.2245 92.933 100.57 94.1694C101.928 95.4057 103.2 95.9148 104.388 95.6845C104.837 95.5997 105.2 95.418 105.479 95.1392L118.934 88.4118C124.328 92.1815 129.006 97.5027 132.982 104.351C137.637 112.375 139.964 120.182 139.964 127.745Z" stroke="#E4A300" stroke-width="2" stroke-linecap="round" stroke-linejoin="round"/>
<path d="M76.1943 96.3756L82.7277 93.1148M104.388 95.6845C104.837 95.5997 105.2 95.418 105.479 95.1392L104.388 95.6845Z" stroke="#E4A300" stroke-width="2" stroke-linecap="round" stroke-linejoin="round"/>
<path d="M84.0735 84.2424C83.2857 86.8364 82.8372 89.7817 82.7281 93.1029L76.1948 96.3758L74.9826 96.9818C74.4008 97.3091 73.8675 97.6847 73.3584 98.0847C70.0372 100.739 68.2554 105.042 68.0251 110.97L57.7705 116.097C58.6432 115.418 58.9584 114.109 58.7038 112.158C58.5463 111.333 58.4614 110.485 58.4614 109.624V106.812C58.4614 98.1576 60.6432 91.7939 65.0069 87.7333C65.9766 86.8242 67.0554 86.0362 68.2432 85.3575C72.8493 82.7272 78.122 82.3636 84.0735 84.2424Z" stroke="#E4A300" stroke-width="2" stroke-linecap="round" stroke-linejoin="round"/>
<path d="M89.48 130.739H89.4678" stroke="#E4A300" stroke-width="2" stroke-linecap="round" stroke-linejoin="round"/>
<path d="M105.916 71.4785C105.71 70.3633 105.37 69.224 104.922 68.0725C104.388 66.7028 103.71 65.3937 102.885 64.1331C102.437 63.4301 101.952 62.7391 101.407 62.0724L93.5158 52.3149L68.0006 20.7513C67.2854 19.8786 66.5339 19.0786 65.7339 18.3513C64.946 17.6119 64.1097 16.9937 63.2369 16.4846C62.3642 15.9877 61.5401 15.6483 60.7886 15.4907C60.037 15.321 59.2612 15.2481 58.4612 15.236L44.5339 16.3877L25.0673 17.9998C24.5097 18.0483 24.0006 18.1574 23.54 18.3513L22.8612 18.6906C22.3521 18.9936 21.9158 19.4178 21.54 19.9269C20.7037 21.0906 20.2915 22.6786 20.2915 24.6907V68.218C20.2915 70.218 20.7037 72.2907 21.54 74.4119C22.3764 76.5331 23.5521 78.533 25.0673 80.4118L52.3764 114.254C53.9643 116.169 55.5036 116.921 56.9703 116.497L57.7703 116.097C58.643 115.418 58.9581 114.109 58.7036 112.157C58.546 111.333 58.4612 110.485 58.4612 109.624V106.812C58.4612 98.1574 60.643 91.7937 65.0066 87.7331C65.9763 86.824 67.0551 86.036 68.243 85.3572C72.8491 82.7269 78.1218 82.3634 84.0733 84.2422C86.5581 85.0301 89.1521 86.1937 91.8672 87.7695C92.0975 87.9028 92.34 88.0483 92.5703 88.1937C93.2491 88.5937 93.9278 89.03 94.6066 89.4906C95.1884 89.8785 95.7703 90.2785 96.34 90.6906C97.8066 91.7694 99.2248 92.933 100.57 94.1694C101.928 95.4057 103.201 95.9148 104.388 95.6845L105.479 95.1392C105.94 94.6665 106.182 93.9149 106.182 92.8846V74.2665C106.182 73.3574 106.098 72.4239 105.916 71.4785ZM94.4855 72.2543C94.4613 72.5089 94.4248 72.7512 94.3642 72.9936C94.0491 74.3148 93.334 75.0178 92.2189 75.1148L89.5643 75.3331L68.0006 77.1513C67.2854 77.1877 66.5339 77.1148 65.7339 76.933C64.946 76.7512 64.1097 76.3998 63.2369 75.8907C62.3642 75.3937 61.5278 74.7754 60.7278 74.036C59.94 73.3088 59.1763 72.5089 58.4612 71.6361L44.5339 54.3391L34.3642 41.7089C33.249 40.3392 32.5219 38.7875 32.1583 37.0785C31.8067 35.3694 31.94 34.0604 32.5824 33.1513C33.2127 32.2422 34.1703 31.9633 35.443 32.3391C36.7157 32.7027 37.9036 33.5754 39.0187 34.9451L44.5339 41.7815L63.2369 64.9451L86.3037 63.0058L87.4552 62.9089C88.5583 62.824 89.7581 63.3331 91.0309 64.4361C91.2491 64.6301 91.4672 64.824 91.6612 65.0422C92.6309 66.0119 93.3583 67.1875 93.8916 68.5451C94.4007 69.8906 94.6189 71.1271 94.4855 72.2543Z" stroke="#E4A300" stroke-width="2" stroke-linecap="round" stroke-linejoin="round"/>
<path d="M94.485 72.2545C94.4608 72.5091 94.4243 72.7515 94.3637 72.9939C94.0486 74.3152 93.3335 75.0182 92.2184 75.1152L89.5638 75.3333L68.0001 77.1515C67.2849 77.1879 66.5335 77.1152 65.7335 76.9333C64.9457 76.7515 64.1093 76.4 63.2366 75.8909C62.3638 75.3939 61.5273 74.7758 60.7273 74.0364C59.9395 73.3091 59.176 72.5091 58.4608 71.6364L44.5335 54.3394L34.3637 41.7091C33.2486 40.3394 32.5214 38.7879 32.1578 37.0788C31.8063 35.3697 31.9396 34.0606 32.582 33.1515C33.2123 32.2424 34.1699 31.9635 35.4426 32.3393C36.7153 32.7029 37.9032 33.5758 39.0184 34.9455L44.5335 41.7818L63.2366 64.9455L86.3032 63.0061L87.4547 62.9091C88.5578 62.8242 89.7576 63.3333 91.0304 64.4364C91.2486 64.6303 91.4669 64.8242 91.6608 65.0424C92.6305 66.0121 93.3578 67.1878 93.8911 68.5453C94.4002 69.8908 94.6184 71.1273 94.485 72.2545Z" stroke="#E4A300" stroke-width="2" stroke-linecap="round" stroke-linejoin="round"/>
<path d="M130.425 62.1452V80.7634C130.425 82.4119 129.819 83.3451 128.631 83.5633L105.48 95.1392C105.94 94.6664 106.182 93.9149 106.182 92.8846V74.2664C106.182 73.3574 106.098 72.4239 105.916 71.4784C105.71 70.3633 105.37 69.224 104.922 68.0725C104.388 66.7028 103.71 65.3937 102.885 64.1331C102.437 63.4301 101.952 62.7391 101.407 62.0724L93.5159 52.3149L68.0006 20.7513C67.2855 19.8786 66.534 19.0786 65.734 18.3513C64.9461 17.6119 64.1097 16.9937 63.237 16.4846C62.3643 15.9877 61.5401 15.6483 60.7886 15.4907C60.0371 15.321 59.2612 15.2481 58.4612 15.236L44.534 16.3877L25.0673 17.9998C24.5097 18.0483 24.0006 18.1574 23.54 18.3513L47.2006 6.50884L47.5037 6.35126H47.5159C48.0492 6.0846 48.643 5.927 49.3097 5.87851L82.7037 3.11484C83.5037 3.12696 84.2795 3.1998 85.031 3.36949C85.7826 3.52707 86.6067 3.86639 87.4794 4.36336C88.3521 4.87245 89.1885 5.49068 89.9764 6.23007C90.7764 6.95735 91.5279 7.75732 92.243 8.63005L125.649 49.9512C127.164 51.83 128.328 53.8301 129.164 55.9513C130.001 58.0725 130.425 60.1452 130.425 62.1452Z" stroke="#E4A300" stroke-width="2" stroke-linecap="round" stroke-linejoin="round"/>
</svg>
