<svg width="160" height="160" viewBox="0 0 160 160" fill="none" xmlns="http://www.w3.org/2000/svg">
<path d="M110.837 69.62C109.436 66.5919 107.624 63.9339 105.402 61.6596L100.616 56.8331L92.9198 49.0844L70.6124 26.605C69.2504 25.2695 67.9016 24.1984 66.5529 23.4182C65.2041 22.6381 63.8421 22.1357 62.4934 21.9109L46.6122 19.5704L27.7032 16.7936C26.2619 16.6085 24.9792 16.7802 23.8817 17.3356L23.6834 17.4283C23.1677 17.6927 22.7049 18.0496 22.2685 18.486C20.8669 19.8877 20.166 21.9769 20.166 24.7538V56.1852C20.166 71.7224 24.0272 88.4498 31.7628 106.38C39.4983 124.324 49.8785 139.544 62.9297 152.066C63.5116 152.635 64.0801 153.124 64.662 153.574C65.2438 154.023 65.8785 154.433 66.5529 154.83C67.2273 155.226 67.8618 155.531 68.4304 155.755C69.0122 155.98 69.5942 156.139 70.176 156.258C78.0702 157.792 84.9859 157.223 90.9231 154.526L92.7744 153.6C95.9215 151.894 98.7777 149.541 101.343 146.552C102.097 145.679 102.811 144.767 103.459 143.828C109.779 135.127 112.94 123.769 112.94 109.752V78.3207C112.94 75.5439 112.239 72.6481 110.837 69.62ZM83.9412 118.969C83.9412 120.846 83.3859 122.103 82.2752 122.737C81.1644 123.372 79.7892 123.213 78.1496 122.274L72.4901 119.008L54.956 108.879C53.3164 107.927 51.9279 106.499 50.8172 104.582C49.7065 102.665 49.1511 100.761 49.1511 98.8828V78.9159C49.1511 77.0382 49.7065 75.7688 50.8172 75.1341C51.042 75.0018 51.2801 74.9091 51.5314 74.843C52.5099 74.5918 53.647 74.8564 54.956 75.6101V68.9589C54.956 65.2961 56.0932 62.8233 58.3544 61.5275C60.6288 60.2316 63.3661 60.5093 66.5529 62.3473C67.7297 63.0217 68.8273 63.8414 69.8719 64.7934C70.6256 65.481 71.3397 66.2348 72.0273 67.0678C72.9925 68.2315 73.8917 69.5407 74.738 70.982C75.0421 71.5109 75.3329 72.0265 75.5974 72.5554C77.3032 75.9141 78.1496 79.1804 78.1496 82.3539V89.0051C79.7892 89.9572 81.1644 91.3853 82.2752 93.3027C82.9892 94.5456 83.4785 95.7885 83.7297 97.005C83.8752 97.6794 83.9412 98.3406 83.9412 99.0017V118.969Z" stroke="#E4A300" stroke-width="2.64463" stroke-linecap="round" stroke-linejoin="round"/>
<path d="M69.8703 64.7932L62.4124 68.5223C61.3017 69.157 60.7463 70.4264 60.7463 72.3041V72.7139L54.9546 75.6099V68.9586C54.9546 65.2958 56.0918 62.8231 58.3529 61.5272C60.6273 60.2314 63.3645 60.5091 66.5513 62.3471C67.7281 63.0215 68.8257 63.8412 69.8703 64.7932Z" stroke="#E4A300" stroke-width="2.64463" stroke-linecap="round" stroke-linejoin="round"/>
<path d="M72.3452 78.995V85.6594L60.7485 78.9552V72.3041C60.7485 70.4264 61.3039 69.1569 62.4146 68.5222L62.7585 68.3503C63.8031 67.9272 65.0725 68.1388 66.5535 68.9983C66.7915 69.1437 67.0295 69.2892 67.2675 69.4611C68.5899 70.3867 69.727 71.6561 70.6791 73.2958C71.7899 75.2131 72.3452 77.1173 72.3452 78.995Z" stroke="#E4A300" stroke-width="2.64463" stroke-linecap="round" stroke-linejoin="round"/>
<path d="M78.1491 82.3536V82.7636L75.597 84.033L72.3441 85.6594V78.995C72.3441 77.1173 71.7887 75.2133 70.678 73.2959C69.7259 71.6562 68.5887 70.3867 67.2664 69.4611C67.0284 69.2892 66.7904 69.1438 66.5524 68.9984C65.0714 68.1389 63.802 67.9273 62.7573 68.3505L69.8714 64.7933C70.6251 65.4809 71.3391 66.2346 72.0267 67.0677C72.992 68.2313 73.8912 69.5405 74.7375 70.9819C75.0416 71.5108 75.3325 72.0264 75.597 72.5553C77.3028 75.914 78.1491 79.1801 78.1491 82.3536Z" stroke="#E4A300" stroke-width="2.64463" stroke-linecap="round" stroke-linejoin="round"/>
<path d="M83.9405 99.0016V118.969C83.9405 120.846 83.3851 122.103 82.2744 122.737C81.1636 123.372 79.7884 123.213 78.1487 122.274L72.4892 119.008L54.9553 108.879C53.3157 107.927 51.9273 106.499 50.8165 104.582C49.7058 102.664 49.1504 100.76 49.1504 98.8826V78.9158C49.1504 77.0381 49.7058 75.7687 50.8165 75.134C51.0413 75.0018 51.2793 74.9091 51.5306 74.8429C52.5091 74.5917 53.6463 74.8563 54.9553 75.61L60.7471 72.714V78.9553L72.3438 85.6595L75.5967 84.033V85.6595C75.5967 87.5372 76.152 89.4413 77.2628 91.3586C78.3735 93.276 79.762 94.7041 81.4016 95.6562L83.7289 97.0049C83.8744 97.6793 83.9405 98.3405 83.9405 99.0016Z" stroke="#E4A300" stroke-width="2.64463" stroke-linecap="round" stroke-linejoin="round"/>
<path d="M139.384 65.0976V96.5292C139.384 112.053 135.51 124.324 127.788 133.329C124.826 136.78 121.48 139.385 117.738 141.131L117.527 141.236L92.7729 153.6C95.92 151.894 98.7762 149.541 101.342 146.552C102.095 145.679 102.809 144.767 103.457 143.828C109.778 135.127 112.938 123.769 112.938 109.752V78.3208C112.938 75.5439 112.237 72.6482 110.836 69.6201C109.434 66.592 107.623 63.9341 105.401 61.6597L100.614 56.8332L92.9184 49.0845L70.6109 26.6052C69.249 25.2697 67.9002 24.1985 66.5514 23.4183C65.2027 22.6381 63.8407 22.1358 62.4919 21.911L46.6109 19.5705L27.7019 16.7936C26.2606 16.6085 24.9779 16.7803 23.8804 17.3356L49.8903 4.33742C51.0804 3.61014 52.5085 3.35896 54.1481 3.57053L88.9382 8.68787C90.287 8.91266 91.649 9.41501 92.9977 10.1952C94.3465 10.9753 95.6952 12.0465 97.0572 13.3821L131.847 48.4366C134.069 50.711 135.88 53.3688 137.282 56.3969C138.684 59.425 139.384 62.3208 139.384 65.0976Z" stroke="#E4A300" stroke-width="2.64463" stroke-linecap="round" stroke-linejoin="round"/>
</svg>
