<svg width="160" height="160" viewBox="0 0 160 160" fill="none" xmlns="http://www.w3.org/2000/svg">
<path d="M106.221 64.0969C104.358 60.8831 102.11 58.5245 99.5033 57.0073L98.5654 56.4694L89.0481 50.9659L51.0205 29.0073L32.9516 18.5797C30.6068 17.228 28.5654 16.9107 26.8275 17.628L26.2343 17.9176C24.3723 18.9797 23.4343 21.0073 23.4343 24.0004V100.373C23.4343 103.38 24.3723 106.483 26.2343 109.697C28.0964 112.911 30.3309 115.269 32.9516 116.773L99.5033 155.2C102.11 156.704 104.358 156.938 106.221 155.876C108.083 154.814 109.007 152.773 109.007 149.779V73.4073C109.007 70.4142 108.083 67.2969 106.221 64.0969ZM88.6205 103.711C87.7102 104.235 86.5792 104.097 85.2412 103.325L70.9792 95.09V111.462C70.9792 113.007 70.524 114.042 69.6137 114.552C68.7033 115.076 67.5723 114.938 66.2205 114.166C64.8688 113.394 63.7516 112.221 62.8412 110.649C61.9171 109.076 61.4619 107.518 61.4619 105.973V89.6004L51.0205 83.5728L47.1999 81.3659C45.8619 80.5935 44.7309 79.4211 43.8205 77.8487C42.9102 76.2763 42.455 74.7176 42.455 73.1728C42.455 71.628 42.9102 70.5935 43.8205 70.0694C44.7309 69.5452 45.8619 69.6831 47.1999 70.4556L51.0205 72.6625L61.4619 78.69V62.3314C61.4619 60.7866 61.9171 59.7521 62.8412 59.228C63.7516 58.7038 64.8688 58.8418 66.2205 59.6142C67.5723 60.4004 68.7033 61.5728 69.6137 63.1452C70.524 64.7176 70.9792 66.2763 70.9792 67.8211V84.1797L71.5999 84.5383L81.1033 90.028L85.2412 92.4142C86.5792 93.1866 87.7102 94.3728 88.6205 95.9452C89.5309 97.5176 89.9861 99.0763 89.9861 100.621C89.9861 102.166 89.5309 103.187 88.6205 103.711Z" stroke="#E4A300" stroke-width="2.75862" stroke-linecap="round" stroke-linejoin="round"/>
<path d="M71.6001 84.5378L61.4622 89.5998L51.0208 83.5722L47.2001 81.3654C45.8622 80.5929 44.7312 79.4205 43.8208 77.8481C42.9105 76.2757 42.4553 74.7171 42.4553 73.1722C42.4553 71.6274 42.9105 70.5929 43.8208 70.0688C44.7312 69.5447 45.8622 69.6826 47.2001 70.455L51.0208 72.6619L61.4622 78.6895L70.9795 73.9309V84.1791L71.6001 84.5378Z" fill="#E4A300" stroke="#171717" stroke-width="2.75862" stroke-linecap="round" stroke-linejoin="round"/>
<path d="M70.9796 67.8205V73.9308L61.4624 78.6894V62.3308C61.4624 60.786 61.9176 59.7515 62.8417 59.2274C63.7521 58.7032 64.8693 58.8412 66.221 59.6136C67.5727 60.3998 68.7038 61.5722 69.6141 63.1446C70.5245 64.717 70.9796 66.2756 70.9796 67.8205Z" fill="#E4A300" stroke="#171717" stroke-width="2.75862" stroke-linecap="round" stroke-linejoin="round"/>
<path d="M89.9859 100.621C89.9859 102.166 89.5307 103.186 88.6204 103.71C87.71 104.235 86.579 104.097 85.2411 103.324L70.979 95.0898L81.1031 90.0277L85.2411 92.4139C86.579 93.1863 87.71 94.3725 88.6204 95.945C89.5307 97.5174 89.9859 99.076 89.9859 100.621Z" fill="#E4A300" stroke="#171717" stroke-width="2.75862" stroke-linecap="round" stroke-linejoin="round"/>
<path d="M81.1038 90.0274L70.9796 95.0894V111.462C70.9796 113.007 70.5245 114.041 69.6141 114.552C68.7038 115.076 67.5727 114.938 66.221 114.165C64.8693 113.393 63.7521 112.22 62.8417 110.648C61.9176 109.076 61.4624 107.517 61.4624 105.972V89.5998L71.6003 84.5377L81.1038 90.0274Z" fill="#E4A300" stroke="#171717" stroke-width="2.75862" stroke-linecap="round" stroke-linejoin="round"/>
<path d="M136.593 59.6144V135.987C136.593 138.98 135.669 141.021 133.807 142.083L133.214 142.373L106.221 155.876C108.083 154.814 109.007 152.773 109.007 149.78V73.4075C109.007 70.4144 108.083 67.2971 106.221 64.0971C104.359 60.8833 102.111 58.5247 99.5037 57.0075L98.5658 56.4695L89.0486 50.9661L51.021 29.0075L32.952 18.5799C30.6072 17.2282 28.5658 16.9109 26.8279 17.6282L53.821 4.12472C55.683 3.06265 57.9175 3.28334 60.5382 4.78679L127.09 43.2144C129.697 44.7316 131.945 47.0902 133.807 50.304C135.669 53.504 136.593 56.6213 136.593 59.6144Z" stroke="#E4A300" stroke-width="2.75862" stroke-linecap="round" stroke-linejoin="round"/>
</svg>
