<svg width="160" height="160" viewBox="0 0 160 160" fill="none" xmlns="http://www.w3.org/2000/svg">
<path d="M117.35 91.1605C116.366 87.9736 115.252 84.8261 114.019 81.7179C114.006 81.6917 114.006 81.6786 113.993 81.6523C112.143 76.9572 109.993 72.3933 107.566 67.9212C107.566 67.9081 107.566 67.8818 107.54 67.8687C106.963 66.7802 106.36 65.7048 105.73 64.6294C100.825 56.1835 95.081 48.4195 88.4581 41.3245C81.8351 34.2294 74.7663 28.4982 67.2385 24.1572C59.7238 19.8163 52.6418 17.3638 46.0451 16.8261C45.7697 16.7999 45.4943 16.7868 45.232 16.7736C44.9828 16.7474 44.7467 16.7343 44.4975 16.7212C39.6188 16.5113 35.2516 17.2589 31.3697 18.8982L31.1467 19.0031C30.9238 19.095 30.727 19.1736 30.5303 19.2786L29.94 19.5671C29.5466 19.7638 29.14 19.9868 28.7728 20.1966C23.8679 22.9769 19.9991 27.3572 17.1401 33.2982C14.2811 39.2523 12.8516 46.531 12.8516 55.1605C12.8516 63.79 14.2811 72.7343 17.1401 81.9802C19.9991 91.2261 23.8679 100.065 28.7728 108.511C33.6646 116.944 39.4221 124.721 46.0451 131.816C52.6418 138.925 59.7238 144.63 67.2385 148.984C74.7663 153.325 81.8351 155.777 88.4581 156.315C94.3072 156.787 99.4877 155.974 103.999 153.836L105.442 153.115C105.534 153.049 105.639 152.997 105.73 152.944C109.442 150.833 112.576 147.803 115.107 143.856C115.239 143.659 115.37 143.462 115.475 143.252C116.157 142.177 116.76 141.049 117.35 139.843C120.209 133.889 121.625 126.61 121.625 117.967C121.625 109.324 120.209 100.393 117.35 91.1605ZM94.1762 91.1868L86.4647 95.5802L85.4286 96.1704L63.7369 108.538L63.4352 108.708C63.1598 108.865 62.8844 108.97 62.5828 109.036C61.7041 109.233 60.7205 109.01 59.632 108.38C58.1893 107.554 56.9171 106.203 55.8286 104.315L40.327 77.5868C39.3303 75.8687 38.832 74.1113 38.832 72.3409C38.832 70.5704 39.3303 69.4031 40.327 68.8392C40.8123 68.5638 41.3631 68.4589 41.9926 68.5245C42.4254 68.5769 42.8975 68.7212 43.3959 68.9572C43.632 69.0491 43.8811 69.1802 44.1303 69.3245C45.6779 70.2163 46.95 71.5146 47.9336 73.2327L59.632 93.4163L76.3795 83.8687L77.4549 83.2523L83.9861 79.5277L85.0615 78.9113L86.5566 78.0589C87.3697 77.5999 88.3531 77.613 89.5204 78.1245C89.5466 78.1376 89.5859 78.1507 89.6122 78.1638C89.8613 78.2687 90.1107 78.3868 90.3729 78.5441C91.8943 79.4359 93.1664 80.7343 94.1762 82.4523C95.1598 84.1835 95.6712 85.9146 95.6712 87.6851C95.6712 89.4556 95.1598 90.6228 94.1762 91.1868Z" stroke="#E4A300" stroke-width="2.62295" stroke-linecap="round" stroke-linejoin="round"/>
<path d="M147.855 104.852C147.855 113.495 146.439 120.774 143.58 126.728C142.885 128.157 142.15 129.495 141.337 130.741C138.806 134.688 135.672 137.718 131.961 139.829C131.842 139.895 131.724 139.961 131.606 140.039L130.229 140.721L105.442 153.115C105.534 153.049 105.639 152.997 105.731 152.944C109.442 150.833 112.577 147.803 115.108 143.856C115.239 143.659 115.37 143.462 115.475 143.252C116.157 142.177 116.761 141.049 117.351 139.843C120.21 133.888 121.626 126.61 121.626 117.967C121.626 109.324 120.21 100.393 117.351 91.1604C116.367 87.9735 115.252 84.826 114.019 81.7178C114.006 81.6916 114.006 81.6785 113.993 81.6522C112.144 76.9571 109.993 72.3932 107.567 67.9211C107.567 67.908 107.567 67.8817 107.541 67.8686C106.964 66.7801 106.361 65.7047 105.731 64.6293C100.826 56.1834 95.0817 48.4194 88.4588 41.3244C81.8358 34.2293 74.7669 28.4981 67.2391 24.1571C59.7243 19.8162 52.6425 17.3637 46.0458 16.826C45.7704 16.7998 45.495 16.7867 45.2327 16.7735C44.9835 16.7473 44.7474 16.7342 44.4982 16.7211C39.6195 16.5112 35.2523 17.2588 31.3704 18.8981L55.003 7.08169C55.3702 6.87186 55.7768 6.64891 56.1702 6.45219L56.7605 6.16366C56.9572 6.05874 57.154 5.98005 57.3769 5.88825L57.4686 5.83579C61.3899 4.1571 65.7966 3.39645 70.7277 3.60628C71.2392 3.63251 71.7507 3.67186 72.2753 3.7112C78.872 4.24891 85.9538 6.70137 93.4686 11.0424C100.996 15.3834 108.065 21.1145 114.688 28.2096C121.311 35.3047 127.056 43.0686 131.961 51.5145C132.59 52.5899 133.193 53.6653 133.77 54.7539C136.21 59.2391 138.361 63.8293 140.223 68.5375C141.468 71.6719 142.583 74.8326 143.58 78.0457C146.439 87.2785 147.855 96.2096 147.855 104.852Z" stroke="#E4A300" stroke-width="2.62295" stroke-linecap="round" stroke-linejoin="round"/>
</svg>
